<svg width="32" height="32" viewBox="0 0 32 32" fill="none" xmlns="http://www.w3.org/2000/svg">
<g id="Logo">
<path id="Vector" d="M2.39961 5.2724C2.39961 2.6048 4.15648 0.799805 6.75656 0.799805H25.2427C27.8415 0.799805 29.5996 2.60354 29.5996 5.2724V31.1998L27.368 28.5385V5.2724C27.368 4.69558 27.1446 4.14232 26.7468 3.73409C26.349 3.32586 25.8094 3.09601 25.2464 3.095H6.76026C6.19734 3.09635 5.6579 3.3263 5.2602 3.73446C4.8625 4.14262 4.63899 4.69568 4.63866 5.2724V24.0659C4.63866 24.6428 4.86207 25.196 5.25984 25.6042C5.65761 26.0125 6.19724 26.2423 6.76026 26.2433H22.268L24.4835 28.5208L6.75656 28.5385C4.15772 28.5385 2.39961 26.7348 2.39961 24.0659V5.2724Z" fill="#00925D"/>
<g id="SS">
<path d="M8.05619 12.1551V8.93125C8.05619 8.13523 8.37463 7.51433 9.0115 7.06856C9.64837 6.62279 10.5006 6.3999 11.5683 6.3999C12.6548 6.3999 13.5164 6.60687 14.1533 7.0208C14.7901 7.41881 15.1086 7.94418 15.1086 8.59692V11.5581C15.1086 11.8447 14.8651 12.0437 14.378 12.1551C14.1158 12.2188 13.8536 12.2506 13.5913 12.2506C13.3291 12.2506 13.0668 12.2268 12.8046 12.179C12.8608 11.7969 12.8889 11.3909 12.8889 10.9611V8.93125C12.8889 8.62876 12.7671 8.39791 12.5236 8.23871C12.2801 8.06358 11.9617 7.97602 11.5683 7.97602C11.175 7.97602 10.8565 8.06358 10.613 8.23871C10.3883 8.39791 10.2759 8.62876 10.2759 8.93125V11.7253C10.2759 12.2825 10.4913 12.6725 10.9221 12.8954L13.9004 14.5193C14.7433 14.9651 15.1648 15.6497 15.1648 16.573V19.8686C15.1648 20.6646 14.837 21.2855 14.1814 21.7312C13.5258 22.177 12.6548 22.3999 11.5683 22.3999C10.5006 22.3999 9.639 22.2009 8.9834 21.8029C8.3278 21.389 8 20.8556 8 20.2029V17.2417C8 16.9551 8.24351 16.7561 8.73053 16.6447C8.99277 16.581 9.25501 16.5492 9.51725 16.5492C9.77949 16.5492 10.0417 16.573 10.304 16.6208C10.2478 17.0029 10.2197 17.4089 10.2197 17.8387V19.8686C10.2197 20.1551 10.3508 20.386 10.613 20.5611C10.8753 20.7362 11.2031 20.8238 11.5964 20.8238C11.9898 20.8238 12.3082 20.7362 12.5517 20.5611C12.814 20.386 12.9451 20.1551 12.9451 19.8686V17.1701C12.9451 16.5492 12.6922 16.1034 12.1865 15.8327L9.20818 14.185C8.44019 13.771 8.05619 13.0944 8.05619 12.1551Z" fill="white"/>
<path d="M16.8914 12.1551V8.93125C16.8914 8.13523 17.2099 7.51433 17.8467 7.06856C18.4836 6.62279 19.3359 6.3999 20.4036 6.3999C21.49 6.3999 22.3516 6.60687 22.9885 7.0208C23.6254 7.41881 23.9438 7.94418 23.9438 8.59692V11.5581C23.9438 11.8447 23.7003 12.0437 23.2133 12.1551C22.951 12.2188 22.6888 12.2506 22.4266 12.2506C22.1643 12.2506 21.9021 12.2268 21.6398 12.179C21.696 11.7969 21.7241 11.3909 21.7241 10.9611V8.93125C21.7241 8.62876 21.6024 8.39791 21.3589 8.23871C21.1154 8.06358 20.7969 7.97602 20.4036 7.97602C20.0102 7.97602 19.6918 8.06358 19.4483 8.23871C19.2235 8.39791 19.1111 8.62876 19.1111 8.93125V11.7253C19.1111 12.2825 19.3265 12.6725 19.7573 12.8954L22.7356 14.5193C23.5785 14.9651 24 15.6497 24 16.573V19.8686C24 20.6646 23.6722 21.2855 23.0166 21.7312C22.361 22.177 21.49 22.3999 20.4036 22.3999C19.3359 22.3999 18.4742 22.2009 17.8186 21.8029C17.163 21.389 16.8352 20.8556 16.8352 20.2029V17.2417C16.8352 16.9551 17.0787 16.7561 17.5658 16.6447C17.828 16.581 18.0902 16.5492 18.3525 16.5492C18.6147 16.5492 18.877 16.573 19.1392 16.6208C19.083 17.0029 19.0549 17.4089 19.0549 17.8387V19.8686C19.0549 20.1551 19.186 20.386 19.4483 20.5611C19.7105 20.7362 20.0383 20.8238 20.4317 20.8238C20.825 20.8238 21.1435 20.7362 21.387 20.5611C21.6492 20.386 21.7803 20.1551 21.7803 19.8686V17.1701C21.7803 16.5492 21.5275 16.1034 21.0217 15.8327L18.0434 14.185C17.2754 13.771 16.8914 13.0944 16.8914 12.1551Z" fill="white"/>
</g>
<path id="Vector_2" d="M6.84279 29.1988L6.86146 29.1802H6.82812L6.84279 29.1988Z" fill="#0D0C0F"/>
</g>
</svg>
